# This file uses centimeters as units for non-parametric coordinates.

mtllib DSA2_AirHockey3D_Bouncer_Revised_HongJ.mtl
g default
v 0.888841 -0.086593 -0.289291
v 0.755867 -0.086593 -0.550265
v 0.548757 -0.086593 -0.757374
v 0.287784 -0.086593 -0.890347
v -0.001507 -0.086593 -0.936166
v -0.290798 -0.086593 -0.890347
v -0.551772 -0.086593 -0.757374
v -0.758881 -0.086593 -0.550264
v -0.891855 -0.086593 -0.289291
v -0.937672 -0.086593 0.000000
v -0.891855 -0.086593 0.289291
v -0.758881 -0.086593 0.550265
v -0.551771 -0.086593 0.757374
v -0.290798 -0.086593 0.890347
v -0.001507 -0.086593 0.936166
v 0.287784 -0.086593 0.890347
v 0.548758 -0.086593 0.757374
v 0.755867 -0.086593 0.550265
v 0.888839 -0.086593 0.289291
v 0.934660 -0.086593 0.000000
v 0.888841 0.121814 -0.289291
v 0.755867 0.121814 -0.550265
v 0.548757 0.121814 -0.757374
v 0.287784 0.121814 -0.890347
v -0.001507 0.121814 -0.936166
v -0.290798 0.121814 -0.890347
v -0.551772 0.121814 -0.757374
v -0.758881 0.121814 -0.550264
v -0.891855 0.121814 -0.289291
v -0.937672 0.121814 0.000000
v -0.891855 0.121814 0.289291
v -0.758881 0.121814 0.550265
v -0.551771 0.121814 0.757374
v -0.290798 0.121814 0.890347
v -0.001507 0.121814 0.936166
v 0.287784 0.121814 0.890347
v 0.548758 0.121814 0.757374
v 0.755867 0.121814 0.550265
v 0.888839 0.121814 0.289291
v 0.934660 0.121814 0.000000
v 0.700593 -0.182098 -0.228126
v 0.595735 -0.182098 -0.433922
v -0.001507 -0.182098 0.000000
v 0.432415 -0.182098 -0.597242
v 0.226619 -0.182098 -0.702100
v -0.001507 -0.182098 -0.738231
v -0.229633 -0.182098 -0.702100
v -0.435428 -0.182098 -0.597242
v -0.598749 -0.182098 -0.433921
v -0.703607 -0.182098 -0.228126
v -0.739738 -0.182098 0.000000
v -0.703607 -0.182098 0.228126
v -0.598749 -0.182098 0.433921
v -0.435428 -0.182098 0.597242
v -0.229632 -0.182098 0.702100
v -0.001507 -0.182098 0.738231
v 0.226619 -0.182098 0.702100
v 0.432415 -0.182098 0.597242
v 0.595735 -0.182098 0.433921
v 0.700592 -0.182098 0.228126
v 0.736725 -0.182098 0.000000
v 0.570572 0.239367 -0.185880
v 0.485132 0.239367 -0.353564
v -0.001507 0.239367 0.000000
v 0.352057 0.239367 -0.486639
v 0.184373 0.239367 -0.572079
v -0.001507 0.239367 -0.601519
v -0.187386 0.239367 -0.572078
v -0.355071 0.239367 -0.486639
v -0.488146 0.239367 -0.353564
v -0.573586 0.239367 -0.185879
v -0.603025 0.239367 0.000000
v -0.573586 0.239367 0.185880
v -0.488146 0.239367 0.353564
v -0.355071 0.239367 0.486639
v -0.187386 0.239367 0.572078
v -0.001507 0.239367 0.601519
v 0.184373 0.239367 0.572078
v 0.352057 0.239367 0.486639
v 0.485132 0.239367 0.353564
v 0.570571 0.239367 0.185879
v 0.600012 0.239367 0.000000
vt 0.648603 0.107966
vt 0.626409 0.064408
vt 0.591842 0.029841
vt 0.548284 0.007647
vt 0.500000 -0.000000
vt 0.451716 0.007647
vt 0.408159 0.029841
vt 0.373591 0.064409
vt 0.351397 0.107966
vt 0.343750 0.156250
vt 0.351397 0.204534
vt 0.373591 0.248091
vt 0.408159 0.282659
vt 0.451716 0.304853
vt 0.500000 0.312500
vt 0.548284 0.304853
vt 0.591841 0.282659
vt 0.626409 0.248091
vt 0.648603 0.204534
vt 0.656250 0.156250
vt 0.375000 0.312500
vt 0.387500 0.312500
vt 0.400000 0.312500
vt 0.412500 0.312500
vt 0.425000 0.312500
vt 0.437500 0.312500
vt 0.450000 0.312500
vt 0.462500 0.312500
vt 0.475000 0.312500
vt 0.487500 0.312500
vt 0.500000 0.312500
vt 0.512500 0.312500
vt 0.525000 0.312500
vt 0.537500 0.312500
vt 0.550000 0.312500
vt 0.562500 0.312500
vt 0.575000 0.312500
vt 0.587500 0.312500
vt 0.600000 0.312500
vt 0.612500 0.312500
vt 0.625000 0.312500
vt 0.375000 0.688440
vt 0.387500 0.688440
vt 0.400000 0.688440
vt 0.412500 0.688440
vt 0.425000 0.688440
vt 0.437500 0.688440
vt 0.450000 0.688440
vt 0.462500 0.688440
vt 0.475000 0.688440
vt 0.487500 0.688440
vt 0.500000 0.688440
vt 0.512500 0.688440
vt 0.525000 0.688440
vt 0.537500 0.688440
vt 0.550000 0.688440
vt 0.562500 0.688440
vt 0.575000 0.688440
vt 0.587500 0.688440
vt 0.600000 0.688440
vt 0.612500 0.688440
vt 0.625000 0.688440
vt 0.648603 0.795466
vt 0.626409 0.751908
vt 0.591842 0.717341
vt 0.548284 0.695147
vt 0.500000 0.687500
vt 0.451716 0.695147
vt 0.408159 0.717341
vt 0.373591 0.751909
vt 0.351397 0.795466
vt 0.343750 0.843750
vt 0.351397 0.892034
vt 0.373591 0.935591
vt 0.408159 0.970159
vt 0.451716 0.992353
vt 0.500000 1.000000
vt 0.548284 0.992353
vt 0.591841 0.970159
vt 0.626409 0.935591
vt 0.648603 0.892034
vt 0.656250 0.843750
vt 0.500000 0.150000
vt 0.500000 0.837500
vt 0.626409 0.064408
vt 0.648603 0.107966
vt 0.591842 0.029841
vt 0.548284 0.007647
vt 0.500000 -0.000000
vt 0.451716 0.007647
vt 0.408159 0.029841
vt 0.373591 0.064409
vt 0.351397 0.107966
vt 0.343750 0.156250
vt 0.351397 0.204534
vt 0.373591 0.248091
vt 0.408159 0.282659
vt 0.451716 0.304853
vt 0.500000 0.312500
vt 0.548284 0.304853
vt 0.591841 0.282659
vt 0.626409 0.248091
vt 0.648603 0.204534
vt 0.656250 0.156250
vt 0.648603 0.892034
vt 0.626409 0.935591
vt 0.591841 0.970159
vt 0.548284 0.992353
vt 0.500000 1.000000
vt 0.451716 0.992353
vt 0.408159 0.970159
vt 0.373591 0.935591
vt 0.351397 0.892034
vt 0.343750 0.843750
vt 0.351397 0.795466
vt 0.373591 0.751909
vt 0.408159 0.717341
vt 0.451716 0.695147
vt 0.500000 0.687500
vt 0.548284 0.695147
vt 0.591842 0.717341
vt 0.626409 0.751908
vt 0.648603 0.795466
vt 0.656250 0.843750
vn 0.823229 -0.500745 -0.267484
vn 0.700280 -0.500745 -0.508785
vn 0.613708 0.651574 -0.445886
vn 0.721457 0.651574 -0.234416
vn 0.508784 -0.500745 -0.700281
vn 0.445885 0.651574 -0.613708
vn 0.267484 -0.500745 -0.823229
vn 0.234416 0.651574 -0.721457
vn -0.000000 -0.500745 -0.865595
vn -0.000000 0.651574 -0.758585
vn -0.267484 -0.500745 -0.823229
vn -0.234416 0.651574 -0.721457
vn -0.508783 -0.500745 -0.700281
vn -0.445885 0.651574 -0.613708
vn -0.700280 -0.500746 -0.508784
vn -0.613708 0.651574 -0.445885
vn -0.823230 -0.500745 -0.267482
vn -0.721457 0.651574 -0.234415
vn -0.865595 -0.500746 0.000000
vn -0.758584 0.651575 0.000000
vn -0.823230 -0.500745 0.267483
vn -0.721457 0.651574 0.234415
vn -0.700280 -0.500745 0.508785
vn -0.613707 0.651574 0.445886
vn -0.508783 -0.500745 0.700281
vn -0.445885 0.651574 0.613709
vn -0.267484 -0.500745 0.823229
vn -0.234416 0.651574 0.721457
vn -0.000000 -0.500745 0.865595
vn -0.000000 0.651574 0.758585
vn 0.267484 -0.500745 0.823229
vn 0.234416 0.651574 0.721457
vn 0.508784 -0.500745 0.700281
vn 0.445885 0.651574 0.613709
vn 0.700281 -0.500745 0.508784
vn 0.613709 0.651574 0.445885
vn 0.823229 -0.500745 0.267484
vn 0.721457 0.651574 0.234416
vn 0.865595 -0.500745 0.000002
vn 0.758585 0.651574 0.000002
vn 0.000000 -1.000000 -0.000000
vn 0.000000 -1.000000 0.000000
vn 0.000000 -1.000000 -0.000000
vn 0.000000 -1.000000 -0.000000
vn 0.000000 -1.000000 0.000000
vn 0.000000 -1.000000 0.000000
vn 0.000000 -1.000000 -0.000000
vn 0.000000 -1.000000 0.000000
vn 0.000000 -1.000000 0.000000
vn 0.000000 -1.000000 0.000000
vn 0.000000 -1.000000 0.000000
vn 0.000000 -1.000000 0.000000
vn 0.000000 -1.000000 -0.000000
vn 0.000000 -1.000000 -0.000000
vn 0.000000 -1.000000 -0.000000
vn 0.000000 -1.000000 -0.000000
vn 0.000000 -1.000000 -0.000000
vn 0.000000 -1.000000 0.000000
vn 0.000000 -1.000000 0.000000
vn 0.000000 -1.000000 -0.000000
vn 0.000000 -1.000000 -0.000000
vn 0.000000 1.000000 -0.000000
vn 0.000000 1.000000 -0.000000
vn 0.000000 1.000000 0.000000
vn 0.000000 1.000000 0.000000
vn 0.000000 1.000000 0.000000
vn 0.000000 1.000000 0.000000
vn 0.000000 1.000000 -0.000000
vn 0.000000 1.000000 -0.000000
vn 0.000000 1.000000 0.000000
vn 0.000000 1.000000 0.000000
vn 0.000000 1.000000 0.000000
vn 0.000000 1.000000 -0.000000
vn 0.000000 1.000000 -0.000000
vn 0.000000 1.000000 0.000000
vn 0.000000 1.000000 0.000000
vn 0.000000 1.000000 0.000000
vn 0.000000 1.000000 0.000000
vn 0.000000 1.000000 -0.000000
vn 0.000000 1.000000 -0.000000
vn 0.000000 1.000000 0.000000
vn 0.000000 1.000000 0.000000
vn 0.413294 -0.900641 -0.134288
vn 0.351569 -0.900641 -0.255431
vn 0.255430 -0.900641 -0.351570
vn 0.134287 -0.900641 -0.413294
vn -0.000000 -0.900641 -0.434563
vn -0.134288 -0.900641 -0.413294
vn -0.255430 -0.900641 -0.351569
vn -0.351569 -0.900641 -0.255430
vn -0.413294 -0.900641 -0.134287
vn -0.434563 -0.900641 -0.000000
vn -0.413294 -0.900641 0.134287
vn -0.351569 -0.900641 0.255430
vn -0.255430 -0.900641 0.351569
vn -0.134288 -0.900641 0.413294
vn 0.000000 -0.900641 0.434563
vn 0.134287 -0.900641 0.413295
vn 0.255430 -0.900641 0.351570
vn 0.351570 -0.900641 0.255430
vn 0.413294 -0.900641 0.134288
vn 0.434563 -0.900641 0.000001
vn 0.268126 0.943483 -0.194805
vn 0.315201 0.943483 -0.102415
vn 0.194805 0.943483 -0.268126
vn 0.102415 0.943483 -0.315201
vn -0.000000 0.943483 -0.331422
vn -0.102415 0.943483 -0.315201
vn -0.194805 0.943483 -0.268126
vn -0.268126 0.943483 -0.194805
vn -0.315201 0.943483 -0.102414
vn -0.331422 0.943483 -0.000000
vn -0.315200 0.943483 0.102414
vn -0.268125 0.943483 0.194805
vn -0.194805 0.943483 0.268126
vn -0.102415 0.943483 0.315201
vn 0.000000 0.943483 0.331422
vn 0.102415 0.943483 0.315201
vn 0.194805 0.943483 0.268126
vn 0.268126 0.943483 0.194805
vn 0.315201 0.943483 0.102415
vn 0.331422 0.943483 0.000001
s 1
g pasted__pasted__pCylinder2 pasted__group group1
usemtl lambert3SG
f 1/21/1 2/22/2 22/43/3 21/42/4
f 2/22/2 3/23/5 23/44/6 22/43/3
f 3/23/5 4/24/7 24/45/8 23/44/6
f 4/24/7 5/25/9 25/46/10 24/45/8
f 5/25/9 6/26/11 26/47/12 25/46/10
f 6/26/11 7/27/13 27/48/14 26/47/12
f 7/27/13 8/28/15 28/49/16 27/48/14
f 8/28/15 9/29/17 29/50/18 28/49/16
f 9/29/17 10/30/19 30/51/20 29/50/18
f 10/30/19 11/31/21 31/52/22 30/51/20
f 11/31/21 12/32/23 32/53/24 31/52/22
f 12/32/23 13/33/25 33/54/26 32/53/24
f 13/33/25 14/34/27 34/55/28 33/54/26
f 14/34/27 15/35/29 35/56/30 34/55/28
f 15/35/29 16/36/31 36/57/32 35/56/30
f 16/36/31 17/37/33 37/58/34 36/57/32
f 17/37/33 18/38/35 38/59/36 37/58/34
f 18/38/35 19/39/37 39/60/38 38/59/36
f 19/39/37 20/40/39 40/61/40 39/60/38
f 20/40/39 1/41/1 21/62/4 40/61/40
s 2
f 42/85/41 41/86/42 43/83/43
f 44/87/44 42/85/41 43/83/43
f 45/88/45 44/87/44 43/83/43
f 46/89/46 45/88/45 43/83/43
f 47/90/47 46/89/46 43/83/43
f 48/91/48 47/90/47 43/83/43
f 49/92/49 48/91/48 43/83/43
f 50/93/50 49/92/49 43/83/43
f 51/94/51 50/93/50 43/83/43
f 52/95/52 51/94/51 43/83/43
f 53/96/53 52/95/52 43/83/43
f 54/97/54 53/96/53 43/83/43
f 55/98/55 54/97/54 43/83/43
f 56/99/56 55/98/55 43/83/43
f 57/100/57 56/99/56 43/83/43
f 58/101/58 57/100/57 43/83/43
f 59/102/59 58/101/58 43/83/43
f 60/103/60 59/102/59 43/83/43
f 61/104/61 60/103/60 43/83/43
f 41/86/42 61/104/61 43/83/43
s 3
f 62/105/62 63/106/63 64/84/64
f 63/106/63 65/107/65 64/84/64
f 65/107/65 66/108/66 64/84/64
f 66/108/66 67/109/67 64/84/64
f 67/109/67 68/110/68 64/84/64
f 68/110/68 69/111/69 64/84/64
f 69/111/69 70/112/70 64/84/64
f 70/112/70 71/113/71 64/84/64
f 71/113/71 72/114/72 64/84/64
f 72/114/72 73/115/73 64/84/64
f 73/115/73 74/116/74 64/84/64
f 74/116/74 75/117/75 64/84/64
f 75/117/75 76/118/76 64/84/64
f 76/118/76 77/119/77 64/84/64
f 77/119/77 78/120/78 64/84/64
f 78/120/78 79/121/79 64/84/64
f 79/121/79 80/122/80 64/84/64
f 80/122/80 81/123/81 64/84/64
f 81/123/81 82/124/82 64/84/64
f 82/124/82 62/105/62 64/84/64
s 1
f 2/2/2 1/1/1 41/86/83 42/85/84
f 3/3/5 2/2/2 42/85/84 44/87/85
f 4/4/7 3/3/5 44/87/85 45/88/86
f 5/5/9 4/4/7 45/88/86 46/89/87
f 6/6/11 5/5/9 46/89/87 47/90/88
f 7/7/13 6/6/11 47/90/88 48/91/89
f 8/8/15 7/7/13 48/91/89 49/92/90
f 9/9/17 8/8/15 49/92/90 50/93/91
f 10/10/19 9/9/17 50/93/91 51/94/92
f 11/11/21 10/10/19 51/94/92 52/95/93
f 12/12/23 11/11/21 52/95/93 53/96/94
f 13/13/25 12/12/23 53/96/94 54/97/95
f 14/14/27 13/13/25 54/97/95 55/98/96
f 15/15/29 14/14/27 55/98/96 56/99/97
f 16/16/31 15/15/29 56/99/97 57/100/98
f 17/17/33 16/16/31 57/100/98 58/101/99
f 18/18/35 17/17/33 58/101/99 59/102/100
f 19/19/37 18/18/35 59/102/100 60/103/101
f 20/20/39 19/19/37 60/103/101 61/104/102
f 1/1/1 20/20/39 61/104/102 41/86/83
f 21/81/4 22/80/3 63/106/103 62/105/104
f 22/80/3 23/79/6 65/107/105 63/106/103
f 23/79/6 24/78/8 66/108/106 65/107/105
f 24/78/8 25/77/10 67/109/107 66/108/106
f 25/77/10 26/76/12 68/110/108 67/109/107
f 26/76/12 27/75/14 69/111/109 68/110/108
f 27/75/14 28/74/16 70/112/110 69/111/109
f 28/74/16 29/73/18 71/113/111 70/112/110
f 29/73/18 30/72/20 72/114/112 71/113/111
f 30/72/20 31/71/22 73/115/113 72/114/112
f 31/71/22 32/70/24 74/116/114 73/115/113
f 32/70/24 33/69/26 75/117/115 74/116/114
f 33/69/26 34/68/28 76/118/116 75/117/115
f 34/68/28 35/67/30 77/119/117 76/118/116
f 35/67/30 36/66/32 78/120/118 77/119/117
f 36/66/32 37/65/34 79/121/119 78/120/118
f 37/65/34 38/64/36 80/122/120 79/121/119
f 38/64/36 39/63/38 81/123/121 80/122/120
f 39/63/38 40/82/40 82/124/122 81/123/121
f 40/82/40 21/81/4 62/105/104 82/124/122
