# This file uses centimeters as units for non-parametric coordinates.

mtllib DSA2_AirHockey3D_Paddle_Revised_HongJ.mtl
g default
v 0.598297 -0.120956 -0.196859
v 0.507811 -0.120956 -0.374447
v 0.366876 -0.120956 -0.515383
v 0.189287 -0.120956 -0.605869
v -0.007571 -0.120956 -0.637048
v -0.204431 -0.120956 -0.605869
v -0.382019 -0.120956 -0.515383
v -0.522954 -0.120956 -0.374447
v -0.613441 -0.120956 -0.196859
v -0.644619 -0.120956 0.000000
v -0.613441 -0.120956 0.196859
v -0.522954 -0.120956 0.374447
v -0.382019 -0.120956 0.515383
v -0.204431 -0.120956 0.605869
v -0.007571 -0.120956 0.637048
v 0.189286 -0.120956 0.605868
v 0.366876 -0.120956 0.515383
v 0.507810 -0.120956 0.374447
v 0.598297 -0.120956 0.196859
v 0.629477 -0.120956 0.000000
v 0.598297 0.120956 -0.196859
v 0.507811 0.120956 -0.374447
v 0.366876 0.120956 -0.515383
v 0.189287 0.120956 -0.605869
v -0.007571 0.120956 -0.637048
v -0.204431 0.120956 -0.605869
v -0.382019 0.120956 -0.515383
v -0.522954 0.120956 -0.374447
v -0.613441 0.120956 -0.196859
v -0.644619 0.120956 0.000000
v -0.613441 0.120956 0.196859
v -0.522954 0.120956 0.374447
v -0.382019 0.120956 0.515383
v -0.204431 0.120956 0.605869
v -0.007571 0.120956 0.637048
v 0.189286 0.120956 0.605868
v 0.366876 0.120956 0.515383
v 0.507810 0.120956 0.374447
v 0.598297 0.120956 0.196859
v 0.629477 0.120956 0.000000
v -0.007571 -0.120956 0.000000
v 0.294549 0.230309 -0.098165
v 0.249427 0.230309 -0.186721
v 0.179150 0.230309 -0.256999
v 0.090594 0.230309 -0.302121
v -0.007571 0.230309 -0.317669
v -0.105737 0.230309 -0.302121
v -0.194293 0.230309 -0.256999
v -0.264571 0.230309 -0.186721
v -0.309692 0.230309 -0.098165
v -0.325240 0.230309 -0.000000
v -0.309692 0.230309 0.098165
v -0.264571 0.230309 0.186721
v -0.194293 0.230309 0.256999
v -0.105736 0.230309 0.302121
v -0.007571 0.230309 0.317669
v 0.090593 0.230309 0.302121
v 0.179150 0.230309 0.256999
v 0.249427 0.230309 0.186721
v 0.294549 0.230309 0.098165
v 0.310097 0.230309 -0.000000
v 0.110148 0.142733 -0.038250
v 0.092566 0.142733 -0.072755
v 0.065183 0.142733 -0.100138
v 0.030678 0.142733 -0.117720
v -0.007571 0.142733 -0.123778
v -0.045821 0.142733 -0.117720
v -0.080327 0.142733 -0.100138
v -0.107711 0.142733 -0.072755
v -0.125292 0.142733 -0.038250
v -0.131350 0.142733 -0.000000
v -0.125292 0.142733 0.038249
v -0.107711 0.142733 0.072755
v -0.080327 0.142733 0.100138
v -0.045821 0.142733 0.117720
v -0.007571 0.142733 0.123778
v 0.030677 0.142733 0.117720
v 0.065183 0.142733 0.100138
v 0.092566 0.142733 0.072755
v 0.110148 0.142733 0.038249
v 0.116206 0.142733 -0.000000
v 0.137934 0.506185 -0.052726
v 0.116203 0.506185 -0.100290
v 0.082355 0.506185 -0.138038
v 0.039706 0.506185 -0.162273
v -0.007571 0.506185 -0.170624
v -0.054849 0.506185 -0.162273
v -0.097499 0.506185 -0.138037
v -0.131346 0.506185 -0.100290
v -0.153078 0.506185 -0.052725
v -0.160566 0.506185 -0.000000
v -0.153078 0.506185 0.052725
v -0.131346 0.506185 0.100290
v -0.097499 0.506185 0.138037
v -0.054849 0.506185 0.162272
v -0.007571 0.506185 0.170623
v 0.039705 0.506185 0.162272
v 0.082355 0.506185 0.138037
v 0.116203 0.506185 0.100290
v 0.137934 0.506185 0.052726
v 0.145422 0.506185 -0.000000
v 0.055557 0.563978 -0.022875
v 0.046128 0.563978 -0.043511
v -0.007572 0.563978 -0.000000
v 0.031444 0.563978 -0.059888
v 0.012940 0.563978 -0.070403
v -0.007572 0.563978 -0.074026
v -0.028083 0.563978 -0.070403
v -0.046587 0.563978 -0.059888
v -0.061272 0.563978 -0.043511
v -0.070700 0.563978 -0.022875
v -0.073949 0.563978 -0.000000
v -0.070700 0.563978 0.022875
v -0.061272 0.563978 0.043511
v -0.046587 0.563978 0.059888
v -0.028083 0.563978 0.070403
v -0.007572 0.563978 0.074026
v 0.012939 0.563978 0.070402
v 0.031444 0.563978 0.059888
v 0.046128 0.563978 0.043511
v 0.055557 0.563978 0.022875
v 0.058805 0.563978 -0.000000
v -0.149345 0.366594 -0.000000
v -0.142406 0.366594 -0.047166
v -0.122269 0.366594 -0.089715
v -0.090904 0.366594 -0.123482
v -0.051382 0.366594 -0.145161
v -0.007571 0.366594 -0.152632
v 0.036238 0.366594 -0.145161
v 0.075760 0.366594 -0.123482
v 0.107125 0.366594 -0.089715
v 0.127262 0.366594 -0.047166
v 0.134201 0.366594 -0.000000
v 0.127262 0.366594 0.047166
v 0.107125 0.366594 0.089715
v 0.075760 0.366594 0.123481
v 0.036238 0.366594 0.145161
v -0.007571 0.366594 0.152631
v -0.051382 0.366594 0.145161
v -0.090904 0.366594 0.123481
v -0.122269 0.366594 0.089714
v -0.142406 0.366594 0.047165
v -0.143769 0.297233 -0.000000
v -0.137104 0.297233 -0.044403
v -0.117758 0.297233 -0.084460
v -0.087627 0.297233 -0.116249
v -0.049659 0.297233 -0.136659
v -0.007571 0.297233 -0.143692
v 0.034515 0.297233 -0.136659
v 0.072483 0.297233 -0.116249
v 0.102614 0.297233 -0.084460
v 0.121960 0.297233 -0.044403
v 0.128625 0.297233 -0.000000
v 0.121960 0.297233 0.044403
v 0.102614 0.297233 0.084460
v 0.072483 0.297233 0.116249
v 0.034515 0.297233 0.136659
v -0.007571 0.297233 0.143691
v -0.049659 0.297233 0.136659
v -0.087627 0.297233 0.116249
v -0.117758 0.297233 0.084460
v -0.137104 0.297233 0.044403
vt 0.648603 0.107966
vt 0.626409 0.064408
vt 0.591842 0.029841
vt 0.548284 0.007647
vt 0.500000 -0.000000
vt 0.451716 0.007647
vt 0.408159 0.029841
vt 0.373591 0.064409
vt 0.351397 0.107966
vt 0.343750 0.156250
vt 0.351397 0.204534
vt 0.373591 0.248091
vt 0.408159 0.282659
vt 0.451716 0.304853
vt 0.500000 0.312500
vt 0.548284 0.304853
vt 0.591841 0.282659
vt 0.626409 0.248091
vt 0.648603 0.204534
vt 0.656250 0.156250
vt 0.375000 0.312500
vt 0.387500 0.312500
vt 0.400000 0.312500
vt 0.412500 0.312500
vt 0.425000 0.312500
vt 0.437500 0.312500
vt 0.450000 0.312500
vt 0.462500 0.312500
vt 0.475000 0.312500
vt 0.487500 0.312500
vt 0.500000 0.312500
vt 0.512500 0.312500
vt 0.525000 0.312500
vt 0.537500 0.312500
vt 0.550000 0.312500
vt 0.562500 0.312500
vt 0.575000 0.312500
vt 0.587500 0.312500
vt 0.600000 0.312500
vt 0.612500 0.312500
vt 0.625000 0.312500
vt 0.375000 0.688440
vt 0.387500 0.688440
vt 0.400000 0.688440
vt 0.412500 0.688440
vt 0.425000 0.688440
vt 0.437500 0.688440
vt 0.450000 0.688440
vt 0.462500 0.688440
vt 0.475000 0.688440
vt 0.487500 0.688440
vt 0.500000 0.688440
vt 0.512500 0.688440
vt 0.525000 0.688440
vt 0.537500 0.688440
vt 0.550000 0.688440
vt 0.562500 0.688440
vt 0.575000 0.688440
vt 0.587500 0.688440
vt 0.600000 0.688440
vt 0.612500 0.688440
vt 0.625000 0.688440
vt 0.648603 0.795466
vt 0.626409 0.751908
vt 0.591842 0.717341
vt 0.548284 0.695147
vt 0.500000 0.687500
vt 0.451716 0.695147
vt 0.408159 0.717341
vt 0.373591 0.751909
vt 0.351397 0.795466
vt 0.343750 0.843750
vt 0.351397 0.892034
vt 0.373591 0.935591
vt 0.408159 0.970159
vt 0.451716 0.992353
vt 0.500000 1.000000
vt 0.548284 0.992353
vt 0.591841 0.970159
vt 0.626409 0.935591
vt 0.648603 0.892034
vt 0.656250 0.843750
vt 0.500000 0.150000
vt 0.500000 0.837500
vt 0.648603 0.892034
vt 0.626409 0.935591
vt 0.591841 0.970159
vt 0.548284 0.992353
vt 0.500000 1.000000
vt 0.451716 0.992353
vt 0.408159 0.970159
vt 0.373591 0.935591
vt 0.351397 0.892034
vt 0.343750 0.843750
vt 0.351397 0.795466
vt 0.373591 0.751909
vt 0.408159 0.717341
vt 0.451716 0.695147
vt 0.500000 0.687500
vt 0.548284 0.695147
vt 0.591842 0.717341
vt 0.626409 0.751908
vt 0.648603 0.795466
vt 0.656250 0.843750
vt 0.648603 0.892034
vt 0.626409 0.935591
vt 0.591841 0.970159
vt 0.548284 0.992353
vt 0.500000 1.000000
vt 0.451716 0.992353
vt 0.408159 0.970159
vt 0.373591 0.935591
vt 0.351397 0.892034
vt 0.343750 0.843750
vt 0.351397 0.795466
vt 0.373591 0.751909
vt 0.408159 0.717341
vt 0.451716 0.695147
vt 0.500000 0.687500
vt 0.548284 0.695147
vt 0.591842 0.717341
vt 0.626409 0.751908
vt 0.648603 0.795466
vt 0.656250 0.843750
vt 0.648603 0.892034
vt 0.626409 0.935591
vt 0.591841 0.970159
vt 0.548284 0.992353
vt 0.500000 1.000000
vt 0.451716 0.992353
vt 0.408159 0.970159
vt 0.373591 0.935591
vt 0.351397 0.892034
vt 0.343750 0.843750
vt 0.351397 0.795466
vt 0.373591 0.751909
vt 0.408159 0.717341
vt 0.451716 0.695147
vt 0.500000 0.687500
vt 0.548284 0.695147
vt 0.591842 0.717341
vt 0.626409 0.751908
vt 0.648603 0.795466
vt 0.656250 0.843750
vt 0.648603 0.892034
vt 0.626409 0.935591
vt 0.591841 0.970159
vt 0.548284 0.992353
vt 0.500000 1.000000
vt 0.451716 0.992353
vt 0.408159 0.970159
vt 0.373591 0.935591
vt 0.351397 0.892034
vt 0.343750 0.843750
vt 0.351397 0.795466
vt 0.373591 0.751909
vt 0.408159 0.717341
vt 0.451716 0.695147
vt 0.500000 0.687500
vt 0.548284 0.695147
vt 0.591842 0.717341
vt 0.626409 0.751908
vt 0.648603 0.795466
vt 0.656250 0.843750
vt 0.343750 0.843750
vt 0.351397 0.892034
vt 0.373591 0.935591
vt 0.408159 0.970159
vt 0.451716 0.992353
vt 0.500000 1.000000
vt 0.548284 0.992353
vt 0.591841 0.970159
vt 0.626409 0.935591
vt 0.648603 0.892034
vt 0.656250 0.843750
vt 0.648603 0.795466
vt 0.626409 0.751908
vt 0.591842 0.717341
vt 0.548284 0.695147
vt 0.500000 0.687500
vt 0.451716 0.695147
vt 0.408159 0.717341
vt 0.373591 0.751909
vt 0.351397 0.795466
vt 0.343750 0.843750
vt 0.351397 0.892034
vt 0.373591 0.935591
vt 0.408159 0.970159
vt 0.451716 0.992353
vt 0.500000 1.000000
vt 0.548284 0.992353
vt 0.591841 0.970159
vt 0.626409 0.935591
vt 0.648603 0.892034
vt 0.656250 0.843750
vt 0.648603 0.795466
vt 0.626409 0.751909
vt 0.591842 0.717341
vt 0.548284 0.695147
vt 0.500000 0.687500
vt 0.451716 0.695147
vt 0.408159 0.717341
vt 0.373591 0.751909
vt 0.351397 0.795466
vn 0.951057 0.000000 -0.309017
vn 0.809017 0.000000 -0.587786
vn 0.667288 0.565406 -0.484813
vn 0.784443 0.565406 -0.254882
vn 0.587785 0.000000 -0.809017
vn 0.484813 0.565405 -0.667288
vn 0.309017 0.000000 -0.951056
vn 0.254882 0.565406 -0.784444
vn 0.000000 0.000000 -1.000000
vn -0.000000 0.565406 -0.824813
vn -0.309017 0.000000 -0.951057
vn -0.254881 0.565406 -0.784444
vn -0.587786 0.000000 -0.809017
vn -0.484814 0.565406 -0.667287
vn -0.809017 0.000000 -0.587786
vn -0.667287 0.565406 -0.484813
vn -0.951056 0.000000 -0.309017
vn -0.784444 0.565406 -0.254882
vn -1.000000 0.000000 0.000000
vn -0.824813 0.565406 0.000000
vn -0.951056 0.000000 0.309017
vn -0.784444 0.565406 0.254882
vn -0.809017 0.000000 0.587786
vn -0.667287 0.565406 0.484813
vn -0.587786 0.000000 0.809017
vn -0.484813 0.565406 0.667287
vn -0.309017 0.000000 0.951057
vn -0.254881 0.565406 0.784444
vn 0.000000 0.000000 1.000000
vn 0.000000 0.565406 0.824813
vn 0.309017 0.000000 0.951057
vn 0.254881 0.565406 0.784444
vn 0.587785 0.000000 0.809017
vn 0.484813 0.565405 0.667288
vn 0.809017 0.000000 0.587786
vn 0.667287 0.565406 0.484813
vn 0.951056 0.000000 0.309020
vn 0.784443 0.565406 0.254883
vn 1.000000 0.000000 0.000000
vn 0.824813 0.565406 0.000000
vn 0.000000 -1.000000 0.000000
vn 0.000000 -1.000000 0.000000
vn 0.000000 -1.000000 0.000000
vn 0.000000 -1.000000 0.000000
vn 0.000000 -1.000000 0.000000
vn 0.000000 -1.000000 0.000000
vn 0.000000 -1.000000 0.000000
vn 0.000000 -1.000000 0.000000
vn 0.000000 -1.000000 0.000000
vn 0.000000 -1.000000 -0.000000
vn 0.000000 -1.000000 0.000000
vn 0.000000 -1.000000 0.000000
vn 0.000000 -1.000000 -0.000000
vn 0.000000 -1.000000 0.000000
vn 0.000000 -1.000000 0.000000
vn 0.000000 -1.000000 0.000000
vn 0.000000 -1.000000 0.000000
vn 0.000000 -1.000000 0.000000
vn 0.000000 -1.000000 0.000000
vn 0.000000 -1.000000 0.000000
vn 0.000000 -1.000000 0.000000
vn 0.000000 1.000000 -0.000000
vn 0.000000 1.000000 -0.000002
vn 0.000000 1.000000 -0.000000
vn 0.000000 1.000000 0.000000
vn 0.000000 1.000000 0.000000
vn 0.000000 1.000000 0.000000
vn 0.000000 1.000000 -0.000001
vn 0.000000 1.000000 0.000000
vn 0.000000 1.000000 0.000001
vn 0.000000 1.000000 0.000000
vn 0.000000 1.000000 0.000000
vn 0.000000 1.000000 0.000000
vn 0.000000 1.000000 -0.000001
vn 0.000000 1.000000 0.000000
vn 0.000000 1.000000 0.000001
vn 0.000000 1.000000 0.000000
vn 0.000000 1.000000 0.000000
vn 0.000000 1.000000 -0.000001
vn 0.000000 1.000000 -0.000000
vn 0.000000 1.000000 -0.000001
vn 0.000000 1.000000 -0.000000
vn 0.262065 0.946081 -0.190401
vn 0.308075 0.946081 -0.100101
vn 0.190402 0.946081 -0.262065
vn 0.100100 0.946081 -0.308076
vn -0.000000 0.946081 -0.323930
vn -0.100100 0.946081 -0.308076
vn -0.190402 0.946081 -0.262065
vn -0.262065 0.946081 -0.190402
vn -0.308076 0.946081 -0.100100
vn -0.323930 0.946081 -0.000000
vn -0.308076 0.946081 0.100100
vn -0.262065 0.946081 0.190402
vn -0.190401 0.946081 0.262065
vn -0.100100 0.946081 0.308076
vn 0.000000 0.946081 0.323930
vn 0.100100 0.946081 0.308076
vn 0.190402 0.946081 0.262065
vn 0.262066 0.946081 0.190401
vn 0.308075 0.946081 0.100101
vn 0.323930 0.946081 -0.000000
vn -0.391488 0.911349 0.127203
vn -0.333021 0.911349 0.241952
vn -0.333021 0.911349 0.241952
vn -0.391488 0.911349 0.127203
vn -0.241954 0.911349 0.333019
vn -0.241954 0.911349 0.333019
vn -0.127203 0.911349 0.391488
vn -0.127202 0.911349 0.391488
vn 0.000000 0.911349 0.411635
vn 0.000000 0.911349 0.411635
vn 0.127202 0.911349 0.391488
vn 0.127202 0.911349 0.391488
vn 0.241953 0.911349 0.333020
vn 0.241953 0.911349 0.333020
vn 0.333020 0.911348 0.241954
vn 0.333020 0.911348 0.241954
vn 0.391490 0.911348 0.127202
vn 0.391490 0.911348 0.127202
vn 0.411637 0.911348 -0.000000
vn 0.411637 0.911348 0.000000
vn 0.391489 0.911348 -0.127202
vn 0.391490 0.911348 -0.127202
vn 0.333020 0.911348 -0.241954
vn 0.333020 0.911348 -0.241955
vn 0.241952 0.911349 -0.333021
vn 0.241952 0.911349 -0.333021
vn 0.127202 0.911349 -0.391488
vn 0.127202 0.911349 -0.391488
vn 0.000000 0.911349 -0.411635
vn -0.000000 0.911349 -0.411635
vn -0.127203 0.911349 -0.391488
vn -0.127202 0.911349 -0.391488
vn -0.241953 0.911349 -0.333019
vn -0.241953 0.911349 -0.333019
vn -0.333021 0.911348 -0.241952
vn -0.333021 0.911348 -0.241952
vn -0.391488 0.911349 -0.127203
vn -0.391488 0.911349 -0.127203
vn -0.411635 0.911349 -0.000000
vn -0.411635 0.911349 0.000000
vn 0.950500 -0.085436 -0.298747
vn 0.814317 -0.096612 -0.572324
vn 0.815714 -0.096607 -0.570332
vn 0.950942 -0.085410 -0.297346
vn 0.596844 -0.110676 -0.794687
vn 0.598847 -0.110688 -0.793178
vn 0.316004 -0.122258 -0.940848
vn 0.317509 -0.122279 -0.940338
vn -0.000000 -0.126731 -0.991937
vn -0.000001 -0.126754 -0.991934
vn -0.316001 -0.122258 -0.940849
vn -0.317506 -0.122279 -0.940339
vn -0.596839 -0.110676 -0.794691
vn -0.598842 -0.110688 -0.793181
vn -0.814313 -0.096611 -0.572330
vn -0.815711 -0.096606 -0.570336
vn -0.950500 -0.085435 -0.298749
vn -0.950941 -0.085409 -0.297349
vn -0.996697 -0.081213 -0.000000
vn -0.996700 -0.081178 0.000000
vn -0.950500 -0.085435 0.298749
vn -0.950941 -0.085409 0.297349
vn -0.814313 -0.096611 0.572330
vn -0.815710 -0.096606 0.570337
vn -0.596839 -0.110676 0.794691
vn -0.598843 -0.110688 0.793181
vn -0.316001 -0.122259 0.940849
vn -0.317506 -0.122279 0.940339
vn 0.000000 -0.126731 0.991937
vn 0.000000 -0.126754 0.991934
vn 0.316005 -0.122258 0.940848
vn 0.317510 -0.122279 0.940338
vn 0.596841 -0.110676 0.794690
vn 0.598843 -0.110688 0.793180
vn 0.814316 -0.096612 0.572324
vn 0.815714 -0.096607 0.570332
vn 0.950500 -0.085436 0.298747
vn 0.950942 -0.085410 0.297346
vn 0.996697 -0.081214 -0.000000
vn 0.996700 -0.081179 -0.000000
vn 0.924061 0.265344 -0.275144
vn 0.802848 0.263810 -0.534640
vn 0.456281 0.840445 -0.292336
vn 0.530182 0.834167 -0.151896
vn 0.599430 0.261836 -0.756390
vn 0.336425 0.848563 -0.408362
vn 0.322490 0.260164 -0.910118
vn 0.179038 0.855438 -0.485975
vn -0.000001 0.259500 -0.965743
vn -0.000002 0.858140 -0.513416
vn -0.322487 0.260162 -0.910120
vn -0.179038 0.855437 -0.485976
vn -0.599428 0.261836 -0.756392
vn -0.336422 0.848563 -0.408365
vn -0.802848 0.263809 -0.534640
vn -0.456283 0.840444 -0.292335
vn -0.924059 0.265344 -0.275150
vn -0.530182 0.834167 -0.151900
vn -0.963995 0.265921 -0.000000
vn -0.555024 0.831834 -0.000000
vn -0.924059 0.265344 0.275150
vn -0.530182 0.834167 0.151900
vn -0.802848 0.263810 0.534640
vn -0.456283 0.840444 0.292334
vn -0.599428 0.261836 0.756391
vn -0.336423 0.848563 0.408364
vn -0.322486 0.260161 0.910120
vn -0.179037 0.855437 0.485976
vn 0.000001 0.259499 0.965743
vn -0.000000 0.858140 0.513415
vn 0.322490 0.260164 0.910118
vn 0.179039 0.855438 0.485975
vn 0.599427 0.261836 0.756392
vn 0.336422 0.848563 0.408364
vn 0.802848 0.263809 0.534640
vn 0.456280 0.840445 0.292336
vn 0.924061 0.265344 0.275144
vn 0.530182 0.834167 0.151896
vn 0.963995 0.265920 -0.000000
vn 0.555027 0.831832 -0.000000
vn -0.954788 -0.085092 -0.284849
vn -0.996710 -0.081051 -0.000000
vn -0.828058 -0.095977 -0.552367
vn -0.616797 -0.110094 -0.779385
vn -0.331164 -0.122104 -0.935639
vn -0.000001 -0.126843 -0.991923
vn 0.331168 -0.122104 -0.935638
vn 0.616799 -0.110095 -0.779383
vn 0.828059 -0.095978 -0.552365
vn 0.954790 -0.085093 -0.284843
vn 0.996710 -0.081052 -0.000000
vn 0.954790 -0.085093 0.284843
vn 0.828058 -0.095978 0.552365
vn 0.616796 -0.110095 0.779386
vn 0.331169 -0.122104 0.935638
vn 0.000000 -0.126842 0.991923
vn -0.331164 -0.122104 0.935640
vn -0.616797 -0.110094 0.779385
vn -0.828058 -0.095977 0.552366
vn -0.954788 -0.085092 0.284849
s 1
g pasted__pCylinder1 group
usemtl lambert2SG
f 1/21/1 2/22/2 22/43/3 21/42/4
f 2/22/2 3/23/5 23/44/6 22/43/3
f 3/23/5 4/24/7 24/45/8 23/44/6
f 4/24/7 5/25/9 25/46/10 24/45/8
f 5/25/9 6/26/11 26/47/12 25/46/10
f 6/26/11 7/27/13 27/48/14 26/47/12
f 7/27/13 8/28/15 28/49/16 27/48/14
f 8/28/15 9/29/17 29/50/18 28/49/16
f 9/29/17 10/30/19 30/51/20 29/50/18
f 10/30/19 11/31/21 31/52/22 30/51/20
f 11/31/21 12/32/23 32/53/24 31/52/22
f 12/32/23 13/33/25 33/54/26 32/53/24
f 13/33/25 14/34/27 34/55/28 33/54/26
f 14/34/27 15/35/29 35/56/30 34/55/28
f 15/35/29 16/36/31 36/57/32 35/56/30
f 16/36/31 17/37/33 37/58/34 36/57/32
f 17/37/33 18/38/35 38/59/36 37/58/34
f 18/38/35 19/39/37 39/60/38 38/59/36
f 19/39/37 20/40/39 40/61/40 39/60/38
f 20/40/39 1/41/1 21/62/4 40/61/40
s 2
f 2/2/41 1/1/42 41/83/43
f 3/3/44 2/2/41 41/83/43
f 4/4/45 3/3/44 41/83/43
f 5/5/46 4/4/45 41/83/43
f 6/6/47 5/5/46 41/83/43
f 7/7/48 6/6/47 41/83/43
f 8/8/49 7/7/48 41/83/43
f 9/9/50 8/8/49 41/83/43
f 10/10/51 9/9/50 41/83/43
f 11/11/52 10/10/51 41/83/43
f 12/12/53 11/11/52 41/83/43
f 13/13/54 12/12/53 41/83/43
f 14/14/55 13/13/54 41/83/43
f 15/15/56 14/14/55 41/83/43
f 16/16/57 15/15/56 41/83/43
f 17/17/58 16/16/57 41/83/43
f 18/18/59 17/17/58 41/83/43
f 19/19/60 18/18/59 41/83/43
f 20/20/61 19/19/60 41/83/43
f 1/1/42 20/20/61 41/83/43
s 3
f 102/145/62 103/146/63 104/84/64
f 103/146/63 105/147/65 104/84/64
f 105/147/65 106/148/66 104/84/64
f 106/148/66 107/149/67 104/84/64
f 107/149/67 108/150/68 104/84/64
f 108/150/68 109/151/69 104/84/64
f 109/151/69 110/152/70 104/84/64
f 110/152/70 111/153/71 104/84/64
f 111/153/71 112/154/72 104/84/64
f 112/154/72 113/155/73 104/84/64
f 113/155/73 114/156/74 104/84/64
f 114/156/74 115/157/75 104/84/64
f 115/157/75 116/158/76 104/84/64
f 116/158/76 117/159/77 104/84/64
f 117/159/77 118/160/78 104/84/64
f 118/160/78 119/161/79 104/84/64
f 119/161/79 120/162/80 104/84/64
f 120/162/80 121/163/81 104/84/64
f 121/163/81 122/164/82 104/84/64
f 122/164/82 102/145/62 104/84/64
s 1
f 21/81/4 22/80/3 43/86/83 42/85/84
f 22/80/3 23/79/6 44/87/85 43/86/83
f 23/79/6 24/78/8 45/88/86 44/87/85
f 24/78/8 25/77/10 46/89/87 45/88/86
f 25/77/10 26/76/12 47/90/88 46/89/87
f 26/76/12 27/75/14 48/91/89 47/90/88
f 27/75/14 28/74/16 49/92/90 48/91/89
f 28/74/16 29/73/18 50/93/91 49/92/90
f 29/73/18 30/72/20 51/94/92 50/93/91
f 30/72/20 31/71/22 52/95/93 51/94/92
f 31/71/22 32/70/24 53/96/94 52/95/93
f 32/70/24 33/69/26 54/97/95 53/96/94
f 33/69/26 34/68/28 55/98/96 54/97/95
f 34/68/28 35/67/30 56/99/97 55/98/96
f 35/67/30 36/66/32 57/100/98 56/99/97
f 36/66/32 37/65/34 58/101/99 57/100/98
f 37/65/34 38/64/36 59/102/100 58/101/99
f 38/64/36 39/63/38 60/103/101 59/102/100
f 39/63/38 40/82/40 61/104/102 60/103/101
f 40/82/40 21/81/4 42/85/84 61/104/102
s 4
f 42/85/103 43/86/104 63/106/105 62/105/106
f 43/86/104 44/87/107 64/107/108 63/106/105
f 44/87/107 45/88/109 65/108/110 64/107/108
f 45/88/109 46/89/111 66/109/112 65/108/110
f 46/89/111 47/90/113 67/110/114 66/109/112
f 47/90/113 48/91/115 68/111/116 67/110/114
f 48/91/115 49/92/117 69/112/118 68/111/116
f 49/92/117 50/93/119 70/113/120 69/112/118
f 50/93/119 51/94/121 71/114/122 70/113/120
f 51/94/121 52/95/123 72/115/124 71/114/122
f 52/95/123 53/96/125 73/116/126 72/115/124
f 53/96/125 54/97/127 74/117/128 73/116/126
f 54/97/127 55/98/129 75/118/130 74/117/128
f 55/98/129 56/99/131 76/119/132 75/118/130
f 56/99/131 57/100/133 77/120/134 76/119/132
f 57/100/133 58/101/135 78/121/136 77/120/134
f 58/101/135 59/102/137 79/122/138 78/121/136
f 59/102/137 60/103/139 80/123/140 79/122/138
f 60/103/139 61/104/141 81/124/142 80/123/140
f 61/104/141 42/85/103 62/105/106 81/124/142
s 5
f 62/105/143 63/106/144 151/193/145 152/194/146
f 63/106/144 64/107/147 150/192/148 151/193/145
f 64/107/147 65/108/149 149/191/150 150/192/148
f 65/108/149 66/109/151 148/190/152 149/191/150
f 66/109/151 67/110/153 147/189/154 148/190/152
f 67/110/153 68/111/155 146/188/156 147/189/154
f 68/111/155 69/112/157 145/187/158 146/188/156
f 69/112/157 70/113/159 144/186/160 145/187/158
f 70/113/159 71/114/161 143/185/162 144/186/160
f 71/114/161 72/115/163 162/204/164 143/185/162
f 72/115/163 73/116/165 161/203/166 162/204/164
f 73/116/165 74/117/167 160/202/168 161/203/166
f 74/117/167 75/118/169 159/201/170 160/202/168
f 75/118/169 76/119/171 158/200/172 159/201/170
f 76/119/171 77/120/173 157/199/174 158/200/172
f 77/120/173 78/121/175 156/198/176 157/199/174
f 78/121/175 79/122/177 155/197/178 156/198/176
f 79/122/177 80/123/179 154/196/180 155/197/178
f 80/123/179 81/124/181 153/195/182 154/196/180
f 81/124/181 62/105/143 152/194/146 153/195/182
f 82/125/183 83/126/184 103/146/185 102/145/186
f 83/126/184 84/127/187 105/147/188 103/146/185
f 84/127/187 85/128/189 106/148/190 105/147/188
f 85/128/189 86/129/191 107/149/192 106/148/190
f 86/129/191 87/130/193 108/150/194 107/149/192
f 87/130/193 88/131/195 109/151/196 108/150/194
f 88/131/195 89/132/197 110/152/198 109/151/196
f 89/132/197 90/133/199 111/153/200 110/152/198
f 90/133/199 91/134/201 112/154/202 111/153/200
f 91/134/201 92/135/203 113/155/204 112/154/202
f 92/135/203 93/136/205 114/156/206 113/155/204
f 93/136/205 94/137/207 115/157/208 114/156/206
f 94/137/207 95/138/209 116/158/210 115/157/208
f 95/138/209 96/139/211 117/159/212 116/158/210
f 96/139/211 97/140/213 118/160/214 117/159/212
f 97/140/213 98/141/215 119/161/216 118/160/214
f 98/141/215 99/142/217 120/162/218 119/161/216
f 99/142/217 100/143/219 121/163/220 120/162/218
f 100/143/219 101/144/221 122/164/222 121/163/220
f 101/144/221 82/125/183 102/145/186 122/164/222
f 124/166/223 123/165/224 91/134/201 90/133/199
f 125/167/225 124/166/223 90/133/199 89/132/197
f 126/168/226 125/167/225 89/132/197 88/131/195
f 127/169/227 126/168/226 88/131/195 87/130/193
f 128/170/228 127/169/227 87/130/193 86/129/191
f 129/171/229 128/170/228 86/129/191 85/128/189
f 130/172/230 129/171/229 85/128/189 84/127/187
f 131/173/231 130/172/230 84/127/187 83/126/184
f 132/174/232 131/173/231 83/126/184 82/125/183
f 133/175/233 132/174/232 82/125/183 101/144/221
f 134/176/234 133/175/233 101/144/221 100/143/219
f 135/177/235 134/176/234 100/143/219 99/142/217
f 136/178/236 135/177/235 99/142/217 98/141/215
f 137/179/237 136/178/236 98/141/215 97/140/213
f 138/180/238 137/179/237 97/140/213 96/139/211
f 139/181/239 138/180/238 96/139/211 95/138/209
f 140/182/240 139/181/239 95/138/209 94/137/207
f 141/183/241 140/182/240 94/137/207 93/136/205
f 142/184/242 141/183/241 93/136/205 92/135/203
f 123/165/224 142/184/242 92/135/203 91/134/201
usemtl lambert3SG
f 144/186/160 143/185/162 123/165/224 124/166/223
f 145/187/158 144/186/160 124/166/223 125/167/225
f 146/188/156 145/187/158 125/167/225 126/168/226
f 147/189/154 146/188/156 126/168/226 127/169/227
f 148/190/152 147/189/154 127/169/227 128/170/228
f 149/191/150 148/190/152 128/170/228 129/171/229
f 150/192/148 149/191/150 129/171/229 130/172/230
f 151/193/145 150/192/148 130/172/230 131/173/231
f 152/194/146 151/193/145 131/173/231 132/174/232
f 153/195/182 152/194/146 132/174/232 133/175/233
f 154/196/180 153/195/182 133/175/233 134/176/234
f 155/197/178 154/196/180 134/176/234 135/177/235
f 156/198/176 155/197/178 135/177/235 136/178/236
f 157/199/174 156/198/176 136/178/236 137/179/237
f 158/200/172 157/199/174 137/179/237 138/180/238
f 159/201/170 158/200/172 138/180/238 139/181/239
f 160/202/168 159/201/170 139/181/239 140/182/240
f 161/203/166 160/202/168 140/182/240 141/183/241
f 162/204/164 161/203/166 141/183/241 142/184/242
f 143/185/162 162/204/164 142/184/242 123/165/224
