# This file uses centimeters as units for non-parametric coordinates.

mtllib table_wall_N.mtl
g default
v -3.000000 -0.300000 -4.000000
v 3.000000 -0.300000 -4.000000
v -3.000000 0.700000 -4.000000
v 3.000000 0.700000 -4.000000
v -3.000000 0.700000 -4.500000
v 3.000000 0.700000 -4.500000
v -3.000000 -0.300000 -4.500000
v 3.000000 -0.300000 -4.500000
v -1.014090 0.700000 -4.000000
v -1.014090 0.700000 -4.500000
v -1.014090 -0.300000 -4.500000
v -1.014090 -0.300000 -4.000000
v 1.017207 0.700000 -4.000000
v 1.017207 0.700000 -4.500000
v 1.017207 -0.300000 -4.500000
v 1.017207 -0.300000 -4.000000
vt 0.375000 0.000000
vt 0.625000 0.000000
vt 0.375000 0.250000
vt 0.625000 0.250000
vt 0.375000 0.500000
vt 0.625000 0.500000
vt 0.375000 0.750000
vt 0.625000 0.750000
vt 0.375000 1.000000
vt 0.625000 1.000000
vt 0.875000 0.000000
vt 0.875000 0.250000
vt 0.125000 0.000000
vt 0.125000 0.250000
vt 0.457746 0.250000
vt 0.457746 0.500000
vt 0.457746 0.750000
vt 0.457746 0.000000
vt 0.457746 1.000000
vt 0.542384 0.250000
vt 0.542384 0.500000
vt 0.542384 0.750000
vt 0.542384 0.000000
vt 0.542384 1.000000
vn 0.000000 0.000000 1.000000
vn 0.000000 0.000000 1.000000
vn 0.000000 0.000000 1.000000
vn 0.000000 0.000000 1.000000
vn 0.000000 1.000000 0.000000
vn 0.000000 1.000000 0.000000
vn 0.000000 1.000000 0.000000
vn 0.000000 1.000000 0.000000
vn 0.000000 0.000000 -1.000000
vn 0.000000 0.000000 -1.000000
vn 0.000000 0.000000 -1.000000
vn 0.000000 0.000000 -1.000000
vn 0.000000 -1.000000 0.000000
vn 0.000000 -1.000000 0.000000
vn 0.000000 -1.000000 0.000000
vn 0.000000 -1.000000 0.000000
vn 1.000000 0.000000 0.000000
vn 1.000000 0.000000 0.000000
vn 1.000000 0.000000 0.000000
vn 1.000000 0.000000 0.000000
vn -1.000000 0.000000 0.000000
vn -1.000000 0.000000 0.000000
vn -1.000000 0.000000 0.000000
vn -1.000000 0.000000 0.000000
vn 0.000000 1.000000 0.000000
vn 0.000000 1.000000 0.000000
vn 0.000000 0.000000 -1.000000
vn 0.000000 0.000000 -1.000000
vn 0.000000 -1.000000 0.000000
vn 0.000000 -1.000000 0.000000
vn 0.000000 0.000000 1.000000
vn 0.000000 0.000000 1.000000
vn 0.000000 1.000000 0.000000
vn 0.000000 1.000000 0.000000
vn 0.000000 0.000000 -1.000000
vn 0.000000 0.000000 -1.000000
vn 0.000000 -1.000000 0.000000
vn 0.000000 -1.000000 0.000000
vn 0.000000 0.000000 1.000000
vn 0.000000 0.000000 1.000000
s 1
g wall_north
usemtl lambert4SG
f 1/1/1 12/18/2 9/15/3 3/3/4
s 2
f 3/3/5 9/15/6 10/16/7 5/5/8
s 3
f 5/5/9 10/16/10 11/17/11 7/7/12
s 4
f 7/7/13 11/17/14 12/19/15 1/9/16
s off
f 2/2/17 8/11/18 6/12/19 4/4/20
f 7/13/21 1/1/22 3/3/23 5/14/24
s 2
f 9/15/6 13/20/25 14/21/26 10/16/7
s 3
f 11/17/11 10/16/10 14/21/27 15/22/28
s 4
f 12/19/15 11/17/14 15/22/29 16/24/30
s 1
usemtl lambert2SG
f 9/15/3 12/18/2 16/23/31 13/20/32
s 2
usemtl lambert4SG
f 13/20/25 4/4/33 6/6/34 14/21/26
s 3
f 15/22/28 14/21/27 6/6/35 8/8/36
s 4
f 16/24/30 15/22/29 8/8/37 2/10/38
s 1
f 13/20/32 16/23/31 2/2/39 4/4/40
