# This file uses centimeters as units for non-parametric coordinates.

mtllib table_base_r.mtl
g default
v -2.500000 -0.125000 4.000000
v 2.500000 -0.125000 4.000000
v -2.500000 0.125000 4.000000
v 2.500000 0.125000 4.000000
v -2.500000 0.125000 -4.000000
v 2.500000 0.125000 -4.000000
v -2.500000 -0.125000 -4.000000
v 2.500000 -0.125000 -4.000000
v -1.015508 0.125000 -4.000000
v -1.015508 -0.125000 -4.000000
v -1.015508 -0.125000 4.000000
v -1.015508 0.125000 4.000000
v 1.015508 0.125000 -4.000000
v 1.015508 -0.125000 -4.000000
v 1.015508 -0.125000 4.000000
v 1.015508 0.125000 4.000000
v -2.500000 0.125000 -0.068955
v -2.500000 -0.125000 -0.068955
v -1.015508 -0.125000 -0.068955
v 1.015508 -0.125000 -0.068955
v 2.500000 -0.125000 -0.068955
v 2.500000 0.125000 -0.068955
v 1.015508 0.125000 -0.068955
v -1.015508 0.125000 -0.068955
v -2.500000 0.125000 -2.096407
v -2.500000 -0.125000 -2.096407
v -1.015508 -0.125000 -2.096407
v 1.015508 -0.125000 -2.096407
v 2.500000 -0.125000 -2.096407
v 2.500000 0.125000 -2.096407
v 1.015508 0.125000 -2.096407
v -1.015508 0.125000 -2.096407
v -2.500000 0.125000 1.973188
v -2.500000 -0.125000 1.973188
v -1.015508 -0.125000 1.973188
v 1.015508 -0.125000 1.973188
v 2.500000 -0.125000 1.973188
v 2.500000 0.125000 1.973188
v 1.015508 0.125000 1.973188
v -1.015508 0.125000 1.973188
v -2.500000 0.125000 -3.565575
v -2.500000 -0.125000 -3.565575
v -1.015508 -0.125000 -3.565575
v 1.015508 -0.125000 -3.565575
v 2.500000 -0.125000 -3.565575
v 2.500000 0.125000 -3.565575
v 1.015508 0.125000 -3.565575
v -1.015508 0.125000 -3.565575
vt 0.375000 0.000000
vt 0.625000 0.000000
vt 0.375000 0.250000
vt 0.625000 0.250000
vt 0.375000 0.500000
vt 0.625000 0.500000
vt 0.375000 0.750000
vt 0.625000 0.750000
vt 0.375000 1.000000
vt 0.625000 1.000000
vt 0.875000 0.000000
vt 0.875000 0.250000
vt 0.125000 0.000000
vt 0.125000 0.250000
vt 0.449225 0.500000
vt 0.449225 0.750000
vt 0.449225 0.000000
vt 0.449225 1.000000
vt 0.449225 0.250000
vt 0.550775 0.500000
vt 0.550775 0.750000
vt 0.550775 0.000000
vt 0.550775 1.000000
vt 0.550775 0.250000
vt 0.247845 0.250000
vt 0.375000 0.377155
vt 0.247845 0.000000
vt 0.375000 0.872845
vt 0.449225 0.872845
vt 0.550775 0.872845
vt 0.625000 0.872845
vt 0.752155 0.000000
vt 0.625000 0.377155
vt 0.752155 0.250000
vt 0.550775 0.377155
vt 0.449225 0.377155
vt 0.184487 0.250000
vt 0.375000 0.440513
vt 0.184487 0.000000
vt 0.375000 0.809487
vt 0.449225 0.809487
vt 0.550775 0.809487
vt 0.625000 0.809487
vt 0.815513 0.000000
vt 0.625000 0.440513
vt 0.815513 0.250000
vt 0.550775 0.440513
vt 0.449225 0.440513
vt 0.311662 0.250000
vt 0.375000 0.313338
vt 0.311662 0.000000
vt 0.375000 0.936662
vt 0.449225 0.936662
vt 0.550775 0.936662
vt 0.625000 0.936662
vt 0.688338 0.000000
vt 0.625000 0.313338
vt 0.688338 0.250000
vt 0.550775 0.313338
vt 0.449225 0.313338
vt 0.138576 0.250000
vt 0.375000 0.486424
vt 0.138576 0.000000
vt 0.375000 0.763576
vt 0.449225 0.763576
vt 0.550775 0.763576
vt 0.625000 0.763576
vt 0.861424 0.000000
vt 0.625000 0.486424
vt 0.861424 0.250000
vt 0.550775 0.486424
vt 0.449225 0.486424
vn 0.000000 0.000000 1.000000
vn 0.000000 0.000000 1.000000
vn 0.000000 0.000000 1.000000
vn 0.000000 0.000000 1.000000
vn 0.000000 1.000000 0.000000
vn 0.000000 1.000000 0.000000
vn 0.000000 1.000000 0.000000
vn 0.000000 1.000000 0.000000
vn 0.000000 0.000000 -1.000000
vn 0.000000 0.000000 -1.000000
vn 0.000000 0.000000 -1.000000
vn 0.000000 0.000000 -1.000000
vn 0.000000 -1.000000 0.000000
vn 0.000000 -1.000000 0.000000
vn 0.000000 -1.000000 0.000000
vn 0.000000 -1.000000 0.000000
vn 1.000000 0.000000 0.000000
vn 1.000000 0.000000 0.000000
vn 1.000000 0.000000 0.000000
vn 1.000000 0.000000 0.000000
vn -1.000000 0.000000 0.000000
vn -1.000000 0.000000 0.000000
vn -1.000000 0.000000 0.000000
vn -1.000000 0.000000 0.000000
vn 0.000000 0.000000 -1.000000
vn 0.000000 0.000000 -1.000000
vn 0.000000 -1.000000 0.000000
vn 0.000000 -1.000000 0.000000
vn 0.000000 0.000000 1.000000
vn 0.000000 0.000000 1.000000
vn 0.000000 1.000000 0.000000
vn 0.000000 1.000000 0.000000
vn 0.000000 0.000000 -1.000000
vn 0.000000 0.000000 -1.000000
vn 0.000000 -1.000000 0.000000
vn 0.000000 -1.000000 0.000000
vn 0.000000 0.000000 1.000000
vn 0.000000 0.000000 1.000000
vn 0.000000 1.000000 0.000000
vn 0.000000 1.000000 0.000000
vn -1.000000 0.000000 0.000000
vn -1.000000 0.000000 0.000000
vn -1.000000 0.000000 0.000000
vn -1.000000 0.000000 0.000000
vn 0.000000 -1.000000 0.000000
vn 0.000000 -1.000000 0.000000
vn 0.000000 -1.000000 0.000000
vn 0.000000 -1.000000 0.000000
vn 0.000000 -1.000000 0.000000
vn 0.000000 -1.000000 0.000000
vn 0.000000 -1.000000 0.000000
vn 0.000000 -1.000000 0.000000
vn 1.000000 0.000000 0.000000
vn 1.000000 0.000000 0.000000
vn 1.000000 0.000000 0.000000
vn 1.000000 0.000000 0.000000
vn 0.000000 1.000000 0.000000
vn 0.000000 1.000000 0.000000
vn 0.000000 1.000000 0.000000
vn 0.000000 1.000000 0.000000
vn 0.000000 1.000000 0.000000
vn 0.000000 1.000000 0.000000
vn 0.000000 1.000000 0.000000
vn 0.000000 1.000000 0.000000
vn -1.000000 0.000000 0.000000
vn -1.000000 0.000000 0.000000
vn 0.000000 -1.000000 0.000000
vn 0.000000 -1.000000 0.000000
vn 0.000000 -1.000000 0.000000
vn 0.000000 -1.000000 0.000000
vn 1.000000 0.000000 0.000000
vn 1.000000 0.000000 0.000000
vn 0.000000 1.000000 0.000000
vn 0.000000 1.000000 0.000000
vn 0.000000 1.000000 0.000000
vn 0.000000 1.000000 0.000000
vn -1.000000 0.000000 0.000000
vn -1.000000 0.000000 0.000000
vn 0.000000 -1.000000 0.000000
vn 0.000000 -1.000000 0.000000
vn 0.000000 -1.000000 0.000000
vn 0.000000 -1.000000 0.000000
vn 1.000000 0.000000 0.000000
vn 1.000000 0.000000 0.000000
vn 0.000000 1.000000 0.000000
vn 0.000000 1.000000 0.000000
vn 0.000000 1.000000 0.000000
vn 0.000000 1.000000 0.000000
s 1
g p_simpler_table_base
usemtl lambert5SG
f 1/1/1 11/17/2 12/19/3 3/3/4
s 2
f 3/3/5 12/19/6 40/60/7 33/50/8
s 3
f 5/5/9 9/15/10 10/16/11 7/7/12
s 4
f 34/52/13 35/53/14 11/18/15 1/9/16
s 5
f 2/2/17 37/56/18 38/58/19 4/4/20
s 6
f 34/51/21 1/1/22 3/3/23 33/49/24
s 3
f 9/15/10 13/20/25 14/21/26 10/16/11
s 4
f 11/18/15 35/53/14 36/54/27 15/23/28
s 1
f 12/19/3 11/17/2 15/22/29 16/24/30
s 2
f 40/60/7 12/19/6 16/24/31 39/59/32
s 3
f 13/20/25 6/6/33 8/8/34 14/21/26
s 4
f 15/23/28 36/54/27 37/55/35 2/10/36
s 1
f 16/24/30 15/22/29 2/2/37 4/4/38
s 2
f 39/59/32 16/24/31 4/4/39 38/57/40
s 6
f 26/39/41 18/27/42 17/25/43 25/37/44
s 4
f 26/40/45 27/41/46 19/29/47 18/28/48
f 20/30/49 19/29/47 27/41/46 28/42/50
f 21/31/51 20/30/49 28/42/50 29/43/52
s 5
f 22/34/53 21/32/54 29/44/55 30/46/56
s 2
f 31/47/57 23/35/58 22/33/59 30/45/60
f 32/48/61 24/36/62 23/35/58 31/47/57
f 17/26/63 24/36/62 32/48/61 25/38/64
s 6
f 42/63/65 26/39/41 25/37/44 41/61/66
s 4
f 42/64/67 43/65/68 27/41/46 26/40/45
f 28/42/50 27/41/46 43/65/68 44/66/69
f 29/43/52 28/42/50 44/66/69 45/67/70
s 5
f 30/46/56 29/44/55 45/68/71 46/70/72
s 2
f 47/71/73 31/47/57 30/45/60 46/69/74
f 48/72/75 32/48/61 31/47/57 47/71/73
f 25/38/64 32/48/61 48/72/75 41/62/76
s 6
f 18/27/42 34/51/21 33/49/24 17/25/43
s 4
f 18/28/48 19/29/47 35/53/14 34/52/13
f 36/54/27 35/53/14 19/29/47 20/30/49
f 37/55/35 36/54/27 20/30/49 21/31/51
s 5
f 38/58/19 37/56/18 21/32/54 22/34/53
s 2
f 23/35/58 39/59/32 38/57/40 22/33/59
f 24/36/62 40/60/7 39/59/32 23/35/58
f 33/50/8 40/60/7 24/36/62 17/26/63
s 6
f 7/13/77 42/63/65 41/61/66 5/14/78
s 4
f 7/7/79 10/16/80 43/65/68 42/64/67
f 44/66/69 43/65/68 10/16/80 14/21/81
f 45/67/70 44/66/69 14/21/81 8/8/82
s 5
f 46/70/72 45/68/71 8/11/83 6/12/84
s 2
f 13/20/85 47/71/73 46/69/74 6/6/86
usemtl lambert2SG
f 9/15/87 48/72/75 47/71/73 13/20/85
usemtl lambert5SG
f 41/62/76 48/72/75 9/15/87 5/5/88
